<?xml version="1.0" encoding="utf-8"?>
<!-- Generator: Adobe Illustrator 16.0.0, SVG Export Plug-In . SVG Version: 6.00 Build 0)  -->
<!DOCTYPE svg PUBLIC "-//W3C//DTD SVG 1.1//EN" "http://www.w3.org/Graphics/SVG/1.1/DTD/svg11.dtd">
<svg version="1.1" id="Capa_1" xmlns="http://www.w3.org/2000/svg" xmlns:xlink="http://www.w3.org/1999/xlink" x="0px" y="0px"
	 width="65.682px" height="53.957px" viewBox="9.659 15.521 65.682 53.957" enable-background="new 9.659 15.521 65.682 53.957"
	 xml:space="preserve">
<g>
	<g>
		<rect x="12.246" y="60.719" fill="#FFFFFF" width="0.398" height="0.597"/>
		<rect x="14.635" y="60.719" fill="#FFFFFF" width="0.796" height="0.597"/>
		<rect x="16.027" y="60.719" fill="#FFFFFF" width="0.796" height="0.597"/>
		<rect x="13.242" y="60.719" fill="#FFFFFF" width="0.796" height="0.597"/>
		<rect x="12.246" y="64.303" fill="#FFFFFF" width="3.981" height="0.596"/>
		<path fill="#FFFFFF" d="M60.813,28.276L42.971,15.671c-0.283-0.2-0.661-0.2-0.943,0L24.188,28.276H9.659v41.202h65.682V28.276
			H60.813z M42.5,16.931c0.398,0,0.596,0.2,0.596,0.598s-0.198,0.596-0.596,0.596s-0.596-0.2-0.596-0.596
			C41.904,17.131,42.102,16.931,42.5,16.931z M40.907,17.529c0,0.796,0.796,1.393,1.593,1.393c0.797,0,1.593-0.598,1.593-1.393
			l15.114,10.733l-33.253,0.03L40.907,17.529z M74.543,68.712L10.502,68.68V29.073h64.043L74.543,68.712z"/>
		<rect x="12.246" y="57.534" fill="#FFFFFF" width="9.953" height="0.597"/>
		<rect x="17.422" y="60.719" fill="#FFFFFF" width="0.796" height="0.597"/>
		<rect x="20.409" y="60.719" fill="#FFFFFF" width="0.796" height="0.597"/>
		<rect x="19.014" y="60.719" fill="#FFFFFF" width="0.794" height="0.597"/>
		<rect x="21.801" y="60.719" fill="#FFFFFF" width="0.398" height="0.597"/>
		<rect x="18.218" y="64.303" fill="#FFFFFF" width="3.979" height="0.596"/>
		<path fill="#FFFFFF" d="M60.503,59.889l-0.601,1.865c-0.184,0.631-0.377,1.366-0.533,2.018h-0.03
			c-0.124-0.655-0.296-1.359-0.472-2.006l-0.547-1.877h-1.689l-0.364,5.612h1.173l0.103-2.134c0.042-0.699,0.067-1.563,0.103-2.32
			h0.017c0.128,0.729,0.327,1.531,0.509,2.19l0.601,2.173h0.991l0.683-2.189c0.214-0.658,0.45-1.461,0.624-2.174h0.029
			c0,0.816,0.023,1.635,0.048,2.31l0.081,2.148h1.234l-0.303-5.612L60.503,59.889L60.503,59.889z"/>
		<path fill="#FFFFFF" d="M64.732,59.889l-1.715,5.612h1.311l0.402-1.441h1.607l0.43,1.441h1.369l-1.738-5.612H64.732z
			 M64.912,63.111l0.332-1.191c0.091-0.324,0.174-0.746,0.257-1.082h0.021c0.08,0.336,0.184,0.75,0.282,1.082l0.351,1.191H64.912z"
			/>
		<path fill="#FFFFFF" d="M68.891,65.501h1.256v-2.007c0.117,0.016,0.27,0.028,0.436,0.028c0.748,0,1.391-0.187,1.818-0.593
			c0.332-0.314,0.518-0.781,0.518-1.329c0-0.55-0.238-1.019-0.601-1.304c-0.378-0.299-0.932-0.449-1.718-0.449
			c-0.775,0-1.326,0.049-1.718,0.115L68.891,65.501z M70.143,60.86c0.094-0.024,0.27-0.05,0.527-0.05
			c0.631,0,0.988,0.307,0.988,0.822c0,0.576-0.414,0.915-1.091,0.915c-0.185,0-0.315-0.01-0.425-0.038V60.86z"/>
		<polygon fill="#FFFFFF" points="57.002,46.457 56.701,46.693 58.439,48.813 58.684,48.896 58.684,49.016 58.358,49.016 
			58.439,49.28 60.572,49.371 59.864,48.919 58.993,48.949 58.959,48.47 59.098,48.535 59.438,48.494 59.406,48.062 58.46,48.074 
			58.205,47.732 58.217,47.551 		"/>
		<polygon fill="#FFFFFF" points="61.162,46.127 60.945,46.127 60.811,46.498 60.648,46.641 59.416,47.313 59.416,47.975 
			59.826,48.517 60.863,48.517 60.998,48.179 61.23,47.965 61.23,47.809 61.376,47.717 61.376,46.555 61.23,46.494 		"/>
		<polygon fill="#FFFFFF" points="61.376,48.961 61.693,48.961 61.648,48.407 61.894,48.5 61.894,48.885 62.154,48.87 
			62.146,47.717 61.523,47.957 61.533,48.096 61.376,48.096 		"/>
		<polygon fill="#FFFFFF" points="66.539,50.66 66.123,49.943 65.745,49.926 65.588,51.227 64.877,51.17 64.668,51.053 
			64.65,50.535 65.025,50.614 65.348,50.303 64.66,49.889 63.859,49.889 63.281,50.709 63.049,50.709 63.049,50.451 62.352,50.501 
			61.259,51.744 60.675,51.758 60.025,52.201 59.985,54.137 59.594,54.515 59.594,54.858 61.48,54.205 63.009,54.145 63.57,55.395 
			65.309,55.451 66.98,53.876 67.396,52.935 67.225,52.245 66.586,51.697 		"/>
		<polygon fill="#FFFFFF" points="64.921,55.773 64.377,55.709 63.801,56.352 64.412,56.416 64.904,56.144 		"/>
		<polygon fill="#FFFFFF" points="66.301,56.485 66.301,56.776 66.938,56.682 68.496,55.728 68.937,55.438 69.403,55.229 
			69.879,54.959 69.704,54.652 69.449,54.699 69.445,54.123 68.973,54.154 68.91,55.057 68.5,55.338 67.734,55.442 66.508,56.315 		
			"/>
		<polygon fill="#FFFFFF" points="64.887,48.213 64.486,48.226 64.521,47.815 64.145,47.589 63.609,48.127 63.971,48.568 
			64.743,48.682 65.18,48.91 65.191,49.127 64.904,49.127 64.921,49.559 65.862,49.5 66.204,49.135 66.576,49.099 66.576,49.77 
			67.209,49.77 67.209,49.5 66.887,49.5 66.832,48.682 65.309,47.993 		"/>
		<polygon fill="#FFFFFF" points="53.568,46.262 53.719,46.657 54.254,46.457 54.307,45.903 53.88,45.822 		"/>
		<polygon fill="#FFFFFF" points="47.273,50.926 46.544,50.83 46.544,51.4 46.803,51.701 46.606,52.007 46.31,52.35 46.31,52.977 
			46.714,53.365 47.078,52.781 47.799,51.728 48.139,50.076 47.704,50.076 		"/>
		<polygon fill="#FFFFFF" points="62.059,49.311 62.245,49.371 62.299,49.184 62.059,49.184 		"/>
		<rect x="60.945" y="49.371" fill="#FFFFFF" width="0.289" height="0.156"/>
		<polygon fill="#FFFFFF" points="61.546,49.371 61.376,49.527 61.376,49.664 61.639,49.641 61.639,49.527 61.814,49.527 
			61.814,49.39 61.945,49.371 61.945,49.236 61.663,49.236 		"/>
		<polygon fill="#FFFFFF" points="62.09,49.527 62.09,49.773 62.368,49.773 62.368,49.65 62.646,49.65 62.646,49.505 62.844,49.527 
			62.816,49.28 62.498,49.326 62.465,49.484 62.107,49.527 		"/>
		<path fill="#FFFFFF" d="M18.865,36.985l-0.386-0.061c0,0.022,0.032,0.432,0.059,0.432c0.028,0,0.265,0,0.265,0L18.865,36.985z"/>
		<polygon fill="#FFFFFF" points="38.048,37.003 38.078,37.233 37.739,37.302 37.688,37.789 38.104,37.789 38.652,37.739 
			38.935,37.401 38.632,37.284 38.466,37.094 38.215,36.698 38.104,36.128 37.635,36.223 37.506,36.423 37.506,36.647 
			37.729,36.805 		"/>
		<polygon fill="#FFFFFF" points="37.654,37.191 37.678,36.882 37.407,36.767 37.023,36.854 36.738,37.306 36.738,37.603 
			37.072,37.603 		"/>
		<path fill="#FFFFFF" d="M35.31,43.553l-0.081,0.459l-0.224,0.087l-0.012,1.202l1.352,1.547h0.59l0.04-0.1h1.057l0.307-0.281h0.6
			l0.332,0.334l0.896,0.091l-0.117,1.192l0.994,1.758l-0.525,1.001l0.039,0.467l0.416,0.41v1.138l0.54,0.726v0.948h1.604
			l1.203-1.235l0.379-0.671l0.484-0.111v-0.565l0.316-0.38l0.668-0.92l-0.135-1.4l-0.295-0.521l1.316-1.264l1.458-2.083l-0.277-0.13
			l-1.516,0.32l-0.392-0.196l-1.589-2.997l0.111-0.129l1.578,1.918l0.04,0.592l0.362,0.365l0.75-0.044l1.546-1.126l0.488-0.313
			l-0.01-0.393l-0.52-0.063c0,0-1.814-0.857-1.814-0.896c0-0.04,0.01-0.733,0.01-0.733h0.402l0.057,0.505l0.841,0.485l0.968,0.047
			l2.082,0.341l0.491,0.309v0.475l-0.063,0.651l1.07,1.758l0.344,0.079l0.345-0.499l0.19-1.425l0.357-0.766l0.574-0.217l1.012,0.1
			l1.275,1.131v1.619l1.68,1.613l0.09-0.287l-1.365-1.944l0.142-0.563l0.716,0.816l0.402,0.042l0.529-0.352l-0.087-0.532
			l-0.878-0.699l-0.035-0.637l0.248-0.333l0.438,0.14l-0.034,0.299l0.25,0.387l0.223-0.16l-0.125-0.457l1.236-0.446l0.544-0.453
			l-0.087-0.818l-1.071-1.132l-0.022-0.921h0.475l1.488,1.131l0.42-0.109l-0.285-0.364l-0.796-0.485l0.048-0.719l0.944,0.002
			l0.075-0.892l-0.359-0.471l0.211-0.232l0.459,0.463l0.148-0.196l-0.597-0.671l-1.457-0.176l-0.196-0.39l0.422-0.602l0.336,0.253
			l1.007,0.087l1.271-0.849l0.211,0.265l-0.287,0.445v0.438l1.168,0.954l0.374-0.194l-0.136-0.637l-0.832-0.776l1.098-0.073v-0.317
			l0.525-0.107l-0.402-0.279l0.031-0.219l1.12,0.18l0.21-0.18l-1.506-0.634l-5.477-0.283l-0.509-0.258l-0.814-0.124l-0.612-0.02
			l-0.556,0.56l-0.229-0.018l-0.741-0.548h-2.176l-1.008-0.604l-2.02,0.127l-1.531,0.691l0.01,0.794l-0.473,0.141l-0.109-0.796
			l-0.178-0.275l-0.525-0.131l-0.125,0.477l0.151,0.39l-1.886-0.125l-0.895,0.414l-0.137-0.392l-0.224,0.059l-0.165,0.437
			l-0.47,0.368l-1.147-0.033l-0.055-0.254l1.207-0.051l0.242-0.21l-1.449-0.673l-1.767,0.052l-0.988,0.505l-0.372,0.663
			l-0.659,0.254l-0.274,0.301l0.063,0.35l0.339,0.046l0.206,0.509l0.576-0.234l0.101,0.679H40.35l-0.475-0.071l-0.53,0.089
			l-0.511,0.722l-0.735,0.123l-0.105,0.626l0.312,0.073l-0.089,0.404l-0.732-0.144l-0.667,0.144l-0.14,0.374l0.113,0.78l0.396,0.184
			l0.655-0.002l0.447-0.042l0.135-0.355l0.693-0.897l0.457,0.093l0.449-0.406l0.085,0.315l1.105,0.748l-0.135,0.182l-0.499-0.028
			l0.188,0.273l0.309,0.066l0.36-0.149l-0.006-0.435l0.162-0.081l-0.131-0.137l-0.738-0.41l-0.192-0.55h0.612l0.194,0.194
			l0.531,0.457l0.021,0.552l0.549,0.582l0.205-0.798l0.379-0.21l0.073,0.655l0.37,0.408l1.119-0.017l0.332,0.247v0.586l-0.408,0.372
			h-1.137l-0.689-0.513l-0.723,0.073v0.44h-0.233l-0.246-0.178l-1.255-0.319v-0.813l-1.594,0.124l-0.495,0.265h-0.628l-0.312-0.032
			l-0.766,0.426v0.8l-1.568,1.134l0.131,0.482L35.31,43.553L35.31,43.553z M46.908,38.365l0.475-0.044l0.406,0.169l0.02,0.285
			l-0.58-0.032l-0.027,0.261l0.721,0.483v0.355l0.316,0.229v0.25h-0.005l-0.161,0.154l-0.373-0.028l-0.07-0.111l-0.578-0.048
			l0.043-0.186l0.309-0.267V39.61l-0.592-0.428l-0.028-0.55L46.908,38.365z M42.552,34.956l-0.697,0.431v0.281l0.394,0.184
			l0.03,0.382l-0.564,0.834l-0.974-0.01l-0.061-0.2l0.608-0.311l0.006-1.154l1.033-0.723h0.225L42.552,34.956L42.552,34.956z
			 M44.717,39.873L44.717,39.873l-0.92-0.042l-0.274,0.041v-0.626l0.208-0.232l0.219-0.069l0.488-0.054l0.107-0.168l0.202,0.099
			l0.028,0.572l0.535,0.22l0.045,0.261H44.717L44.717,39.873z"/>
		<path fill="#FFFFFF" d="M29.719,38.707h-0.406v0.21h0.097c0,0,0.006,0.044,0.012,0.101l0.252-0.022l0.15-0.093l0.044-0.196
			l0.2-0.016l0.081-0.168l-0.186-0.04l-0.158,0.004L29.719,38.707z"/>
		<polygon fill="#FFFFFF" points="28.739,39.077 29.038,39.052 29.063,38.846 28.885,38.707 28.757,38.873 		"/>
		<path fill="#FFFFFF" d="M17.07,36.126l0.202-0.214h1.211l0.438,0.388l-0.026,0.604l0.37,0.339l-0.307,0.221l0.069,0.794
			l-1.097,1.33v1.249l0.588,0.285v1.122l0.57,0.964l0.455,0.069l0.059-0.332l-0.537-0.835l-0.107-0.813h0.319l0.135,0.837
			l0.785,1.144l-0.21,0.366l0.503,0.766l1.241,0.307v-0.202l0.495,0.071l-0.044,0.355c0.437,0.07,0.303,0.042,0.99,0.232
			l0.849,0.968l1.083,0.083l0.105,0.885l-0.744,0.521l-0.037,0.786l-0.103,0.485l1.071,1.342l0.083,0.461
			c0,0,0.39,0.105,0.432,0.105c0.047,0,0.875,0.631,0.875,0.631v2.42l0.295,0.088l-0.206,1.111l0.497,0.656l-0.089,1.111l0.653,1.15
			l0.84,0.731l0.841,0.019l0.085-0.271l-0.618-0.523c0.046-0.318,0.014-0.197,0.149-0.582l0.024-0.316l-0.422-0.015l-0.216-0.263
			l0.35-0.338l0.048-0.25l-0.39-0.109l0.022-0.238l0.554-0.083l0.843-0.402c0.378-0.692,0.564-0.879,1.168-1.651l-0.202-0.883
			l0.271-0.471l0.813,0.02l0.545-0.426l0.178-1.71l0.606-0.776l0.109-0.49l-0.556-0.18l-0.364-0.599l-1.251-0.015l-0.99-0.378
			l-0.046-0.709l-0.332-0.576l-0.889-0.012l-0.519-0.814l-0.461-0.219l-0.024,0.243l-0.834,0.053l-0.307-0.425l-0.875-0.179
			l-0.72,0.827l-1.129-0.19l-0.083-1.275l-0.827-0.141l0.332-0.629l-0.095-0.354l-1.081,0.726l-0.681-0.083l-0.249-0.537
			c0.186-0.677,0.075-0.41,0.529-1.245l0.865-0.44h1.673l-0.004,0.509l0.602,0.283l-0.048-0.871c0.46-0.463,0.321-0.361,1.308-1.01
			l0.057-0.402l0.875-0.91l0.93-0.511l-0.083-0.066l0.626-0.592l0.232,0.061l0.107,0.134l0.238-0.267l0.055-0.028
			c-0.315-0.042-0.202-0.014-0.521-0.123v-0.257l0.14-0.115h0.311l0.144,0.063l0.121,0.247l0.15-0.022v-0.014l0.044,0.012
			l0.433-0.068l0.061-0.212l0.243,0.061v0.229l-0.229,0.16l0.034,0.255l0.79,0.242c0,0,0.002,0.004,0.002,0.008l0.18-0.014
			l0.012-0.34l-0.625-0.285l-0.037-0.168l0.518-0.178l0.022-0.491l-0.54-0.332l-0.036-0.834l-0.748,0.364h-0.271l0.073-0.637
			l-1.006-0.24l-0.42,0.315v0.968l-0.752,0.234l-0.303,0.631l-0.325,0.05v-0.802l-0.706-0.101l-0.354-0.228l-0.144-0.52l1.265-0.742
			l0.619-0.188l0.061,0.414l0.348-0.016l0.028-0.21l0.36-0.051l0.004-0.071l-0.151-0.064l-0.037-0.22l0.443-0.039l0.267-0.279
			l0.02-0.02v0.002l0.083-0.085l0.932-0.117l0.41,0.35l-1.083,0.576l1.376,0.323l0.176-0.461h0.604l0.21-0.4l-0.422-0.105v-0.505
			l-1.332-0.59l-0.919,0.105l-0.521,0.271l0.041,0.661l-0.543-0.083l-0.083-0.364l0.513-0.471l-0.938-0.048l-0.271,0.079
			l-0.122,0.319l0.356,0.061l-0.073,0.354l-0.599,0.036l-0.095,0.232l-0.877,0.024c0,0-0.02-0.495-0.054-0.495
			c-0.037,0,0.683-0.01,0.683-0.01l0.519-0.507l-0.283-0.144l-0.378,0.368l-0.626-0.035l-0.374-0.519h-0.802l-0.839,0.626h0.768
			l0.071,0.224l-0.202,0.188l0.849,0.024l0.131,0.307L24.33,34.65l-0.046-0.236l-0.601-0.131l-0.319-0.174l-1.415,0.014
			l-0.435,0.422l-0.297-0.024l-0.33-0.192l-0.978-0.291h-1.791l-1.037,0.705l-0.695,0.107l-0.319,0.249l0.495,0.073v0.198h-1.057
			l-0.414,0.295l0.529,0.448L17.07,36.126z M26.003,39.659h-0.451l0.07-0.307l0.212-0.022l0.049-0.105l0.323-0.044v0.275h0.002
			L26.003,39.659z M26.316,38.898l-0.212,0.138l-0.267,0.046c0,0,0-0.42,0-0.465h0.479V38.898L26.316,38.898z M26.718,38.573
			l0.218,0.133l-0.176,0.144l-0.168-0.144L26.718,38.573z M26.431,38.925h0.034l0.542,0.158v0.277h-0.455l-0.121-0.178V38.925z
			 M26.08,38.165l0.293,0.267l-0.293,0.071V38.165z M24.839,38.209l0.408-0.168h0.56v0.168h0.122v0.293h-0.853l-0.315-0.087
			L24.839,38.209z M24.762,38.969l0.323-0.352h0.469l-0.601,0.839l-0.25-0.133L24.762,38.969z M24.327,36.973l0.333,0.077
			l-0.115,0.453l-0.36,0.117l-0.227-0.471L24.327,36.973z M22.65,34.834v-0.026h0.309l0.028-0.107h0.507v0.222l-0.149,0.192H22.65
			V34.834z M23.141,35.523c0,0,0.311-0.054,0.335-0.054s0,0.311,0,0.311l-0.697,0.044l-0.131-0.158L23.141,35.523z"/>
	</g>
</g>
</svg>
