<?xml version="1.0" encoding="utf-8"?>
<!-- Generator: Adobe Illustrator 16.0.0, SVG Export Plug-In . SVG Version: 6.00 Build 0)  -->
<!DOCTYPE svg PUBLIC "-//W3C//DTD SVG 1.1//EN" "http://www.w3.org/Graphics/SVG/1.1/DTD/svg11.dtd">
<svg version="1.1" id="Capa_1" xmlns="http://www.w3.org/2000/svg" xmlns:xlink="http://www.w3.org/1999/xlink" x="0px" y="0px"
	 width="45px" height="45px" viewBox="0 0 612 612" style="enable-background:new 0 0 612 612;" xml:space="preserve">
<style type="text/css">
<![CDATA[
	.st0{fill:#FFFFFF;}
]]>
</style>
<g>
	<g>
		<g>
			<path class="st0" d="M598.8,224.984H13.199c-5.137,0-9.804-2.978-11.969-7.635c-2.165-4.656-1.431-10.147,1.88-14.07
				L143.552,36.713c2.508-2.978,6.199-4.694,10.09-4.694h304.723c3.891,0,7.588,1.716,10.09,4.694L608.89,203.279
				c3.313,3.928,4.045,9.414,1.875,14.07C608.605,222.007,603.933,224.984,598.8,224.984z M41.594,198.585h528.812L452.228,58.418
				H159.776L41.594,198.585z"/>
			<polygon class="st0" points="306,579.98 3.104,220.29 23.294,203.285 306,539 588.705,203.285 608.896,220.29 			"/>
			<path class="st0" d="M306,572.689c-5.602,0-10.586-3.531-12.444-8.813L170.959,216.178c-1.452-4.124-0.776-8.696,1.816-12.217
				L295.371,37.395c2.487-3.38,6.432-5.376,10.629-5.376s8.142,1.996,10.634,5.375L439.23,203.96
				c2.588,3.521,3.27,8.094,1.814,12.217L318.449,563.876C316.585,569.158,311.597,572.689,306,572.689z M198.176,213.987
				L306,519.796l107.824-305.811L306,67.489L198.176,213.987z"/>
		</g>
	</g>
</g>
</svg>
