<?xml version="1.0" encoding="utf-8"?>
<!-- Generator: Adobe Illustrator 16.0.0, SVG Export Plug-In . SVG Version: 6.00 Build 0)  -->
<!DOCTYPE svg PUBLIC "-//W3C//DTD SVG 1.1//EN" "http://www.w3.org/Graphics/SVG/1.1/DTD/svg11.dtd">
<svg version="1.1" id="Capa_1" xmlns="http://www.w3.org/2000/svg" xmlns:xlink="http://www.w3.org/1999/xlink" x="0px" y="0px"
	 width="65px" height="65px" viewBox="0 0 612 792" style="enable-background:new 0 0 612 792;" xml:space="preserve">
<style type="text/css">
<![CDATA[
	.st0{fill:#FFFFFF;}
]]>
</style>
<path class="st0" d="M604.189,701.341H306.021c-0.016,0-0.034,0-0.046,0H7.811c-4.314,0-7.811-3.496-7.811-7.811V98.466
	c0-4.314,3.496-7.81,7.811-7.81h298.165c0.016,0,0.031,0,0.046,0h298.165c4.314,0,7.811,3.496,7.811,7.81V693.53
	C612,697.845,608.501,701.341,604.189,701.341z M313.832,685.72h282.544V404.444h-92.619c-3.018,0-5.764-1.74-7.058-4.464
	c-1.134-2.394-0.972-5.171,0.375-7.392c0.281-0.734,0.672-1.434,1.175-2.068c7.723-9.763,11.825-21.472,11.869-33.863
	c-0.104-30.176-24.788-54.77-55.017-54.77c-30.336,0-55.014,24.681-55.014,55.017c0.128,12.381,4.229,23.956,11.865,33.616
	c0.5,0.631,0.891,1.328,1.168,2.053c1.356,2.228,1.521,5.011,0.385,7.408c-1.29,2.724-4.039,4.464-7.058,4.464h-92.619v76.555
	c9.588-4.732,20.11-7.188,31.045-7.188l0.49,0.003l0.385-0.003c38.952,0,70.638,31.688,70.638,70.638s-31.688,70.638-70.638,70.638
	l-0.49-0.004l-0.385,0.004c-10.932,0-21.454-2.456-31.045-7.192v77.826H313.832z M15.621,685.72h282.543v-91.994
	c0-0.3,0.019-0.594,0.053-0.888c0.097-2.911,1.812-5.532,4.458-6.788c2.725-1.294,5.951-0.9,8.288,1.009
	c9.826,8.029,21.72,12.318,34.404,12.409c30.017-0.206,54.525-24.887,54.525-55.017s-24.509-54.811-54.632-55.017
	c-12.575,0.088-24.472,4.377-34.298,12.409c-2.337,1.912-5.563,2.303-8.288,1.009c-2.649-1.253-4.361-3.883-4.461-6.798
	c-0.031-0.291-0.05-0.584-0.05-0.878v-90.729H220.56c4.589,9.477,6.97,19.864,6.97,30.651v0.444
	c0,38.948-31.688,70.634-70.638,70.634c-38.949,0-70.634-31.688-70.634-70.634v-0.444c0-10.784,2.384-21.172,6.97-30.651H15.621
	V685.72z M114.919,399.412c-0.281,0.733-0.672,1.434-1.175,2.067c-7.723,9.764-11.825,21.473-11.869,33.863
	c0.103,30.177,24.787,54.77,55.014,54.77c30.232,0,54.914-24.593,55.017-54.822c-0.044-12.338-4.146-24.047-11.869-33.811
	c-0.503-0.634-0.894-1.334-1.175-2.067c-1.347-2.222-1.509-5.002-0.375-7.392c1.293-2.725,4.04-4.465,7.058-4.465h92.619V311
	c-9.588,4.733-20.113,7.192-31.048,7.192l-0.737-0.003c-39.086,0-70.772-31.688-70.772-70.634c0-38.952,31.688-70.638,70.638-70.638
	l0.487,0.003l0.384-0.003c10.935,0,21.457,2.456,31.048,7.192v-77.833H15.621v281.275h92.619c3.018,0,5.764,1.74,7.057,4.464
	C116.432,394.41,116.266,397.19,114.919,399.412z M518.771,387.555h77.607V106.277H313.835v91.998c0,0.3-0.019,0.594-0.05,0.887
	c-0.1,2.912-1.814,5.533-4.461,6.789c-2.725,1.294-5.952,0.903-8.289-1.009c-9.826-8.029-21.719-12.319-34.403-12.409
	c-30.017,0.206-54.526,24.887-54.526,55.017c0,30.026,24.419,54.708,54.436,55.014c12.653-0.044,24.619-4.333,34.494-12.409
	c2.337-1.912,5.564-2.303,8.289-1.009c2.649,1.253,4.364,3.886,4.461,6.804c0.031,0.288,0.05,0.581,0.05,0.875v90.726h77.608
	c-4.553-9.404-6.937-19.708-6.971-30.405l-0.003-0.684c0-38.952,31.688-70.637,70.638-70.637s70.638,31.688,70.638,70.637v0.44
	C525.741,367.689,523.361,378.077,518.771,387.555z"/>
</svg>
