<?xml version="1.0" encoding="utf-8"?>
<!-- Generator: Adobe Illustrator 16.0.0, SVG Export Plug-In . SVG Version: 6.00 Build 0)  -->
<!DOCTYPE svg PUBLIC "-//W3C//DTD SVG 1.1//EN" "http://www.w3.org/Graphics/SVG/1.1/DTD/svg11.dtd">
<svg version="1.1" id="Capa_1" xmlns="http://www.w3.org/2000/svg" xmlns:xlink="http://www.w3.org/1999/xlink" x="0px" y="0px"
	 width="45px" height="45px" viewBox="0 0 612 792" style="enable-background:new 0 0 612 792;" xml:space="preserve">
<style type="text/css">
<![CDATA[
	.st0{fill:#FFFFFF;}
]]>
</style>
<g>
	<path class="st0" d="M135.002,119.4H26.743C11.997,119.4,0,131.4,0,146.151v108.25c0,14.753,11.997,26.754,26.743,26.754h108.259
		c14.75,0,26.75-12.001,26.75-26.754v-108.25C161.753,131.4,149.751,119.4,135.002,119.4z M17.424,146.151
		c0-5.143,4.181-9.326,9.319-9.326h108.259c5.143,0,9.329,4.184,9.329,9.326v108.25c0,5.145-4.186,9.33-9.329,9.33H26.743
		c-5.138,0-9.319-4.186-9.319-9.33V146.151z"/>
	<path class="st0" d="M229.385,165.321h373.902c4.805,0,8.713-3.908,8.713-8.713c0-4.803-3.908-8.711-8.713-8.711H229.385
		c-4.805,0-8.714,3.908-8.714,8.711C220.672,161.413,224.58,165.321,229.385,165.321z"/>
	<path class="st0" d="M229.385,208.989h295.458c4.805,0,8.714-3.908,8.714-8.713c0-4.805-3.909-8.712-8.714-8.712H229.385
		c-4.805,0-8.714,3.908-8.714,8.712C220.671,205.08,224.58,208.989,229.385,208.989z"/>
	<path class="st0" d="M603.287,235.236H229.385c-4.805,0-8.714,3.908-8.714,8.713c0,4.804,3.909,8.713,8.714,8.713h373.902
		c4.805,0,8.713-3.908,8.713-8.713C612,239.146,608.092,235.236,603.287,235.236z"/>
	<path class="st0" d="M603.287,343.617H229.385c-4.805,0-8.714,3.908-8.714,8.713c0,4.803,3.909,8.713,8.714,8.713h373.902
		c4.805,0,8.713-3.908,8.713-8.713C612,347.524,608.092,343.617,603.287,343.617z"/>
	<path class="st0" d="M229.385,404.714h295.458c4.805,0,8.714-3.908,8.714-8.713c0-4.803-3.909-8.712-8.714-8.712H229.385
		c-4.805,0-8.714,3.908-8.714,8.712C220.672,400.805,224.58,404.714,229.385,404.714z"/>
	<path class="st0" d="M603.287,430.96H229.385c-4.805,0-8.714,3.908-8.714,8.713s3.909,8.713,8.714,8.713h373.902
		c4.805,0,8.713-3.908,8.713-8.713S608.092,430.96,603.287,430.96z"/>
	<path class="st0" d="M603.287,539.342H229.385c-4.805,0-8.714,3.908-8.714,8.713c0,4.804,3.909,8.713,8.714,8.713h373.902
		c4.805,0,8.713-3.908,8.713-8.713S608.092,539.342,603.287,539.342z"/>
	<path class="st0" d="M229.385,600.438h295.458c4.805,0,8.714-3.907,8.714-8.713c0-4.803-3.909-8.713-8.714-8.713H229.385
		c-4.805,0-8.714,3.908-8.714,8.713C220.672,596.528,224.58,600.438,229.385,600.438z"/>
	<path class="st0" d="M603.287,626.681H229.385c-4.805,0-8.714,3.907-8.714,8.713c0,4.805,3.909,8.711,8.714,8.711h373.902
		c4.805,0,8.713-3.907,8.713-8.711S608.092,626.681,603.287,626.681z"/>
	<path class="st0" d="M34.993,237.381c-0.002,2.327,0.903,4.516,2.548,6.161c1.645,1.65,3.834,2.558,6.165,2.558
		c2.323,0,4.509-0.904,6.155-2.547l31.012-30.966l31.015,30.964c1.644,1.643,3.83,2.548,6.155,2.548c2.331,0,4.52-0.908,6.166-2.557
		c1.644-1.646,2.548-3.834,2.547-6.163c-0.001-2.327-0.91-4.514-2.557-6.159l-30.995-30.946L124.2,169.33
		c3.398-3.396,3.403-8.923,0.009-12.321c-1.646-1.648-3.837-2.557-6.167-2.557c-2.323,0-4.509,0.904-6.154,2.547l-31.013,30.966
		l-31.012-30.966c-1.645-1.643-3.831-2.548-6.156-2.548c-2.33,0-4.519,0.908-6.163,2.557c-1.646,1.646-2.552,3.835-2.549,6.164
		c0.001,2.327,0.91,4.514,2.557,6.159l30.993,30.946l-30.993,30.946C35.903,232.867,34.994,235.054,34.993,237.381z"/>
	<path class="st0" d="M34.993,628.83c-0.002,2.328,0.903,4.516,2.548,6.162c1.645,1.65,3.834,2.558,6.165,2.558
		c2.323,0,4.509-0.904,6.155-2.546l31.012-30.965l31.015,30.965c1.644,1.642,3.83,2.548,6.155,2.548c2.331,0,4.52-0.908,6.166-2.557
		c3.395-3.398,3.39-8.927-0.01-12.321l-30.995-30.946l30.996-30.946c1.646-1.644,2.554-3.83,2.556-6.158
		c0.001-2.327-0.903-4.516-2.547-6.163c-1.645-1.648-3.835-2.557-6.166-2.557c-2.325,0-4.51,0.906-6.154,2.549l-31.016,30.964
		L49.86,548.452c-1.645-1.645-3.831-2.549-6.156-2.549c-2.329,0-4.519,0.908-6.162,2.557c-1.646,1.646-2.552,3.836-2.549,6.163
		c0.001,2.327,0.911,4.514,2.557,6.158l30.995,30.946l-30.995,30.946C35.903,624.316,34.994,626.503,34.993,628.83z"/>
	<path class="st0" d="M135.002,315.126H26.743C11.997,315.126,0,327.125,0,341.873v108.252c0,14.751,11.997,26.751,26.743,26.751
		h108.259c14.75,0,26.75-12,26.75-26.751V341.873C161.753,327.125,149.751,315.126,135.002,315.126z M17.424,341.873
		c0-5.141,4.181-9.324,9.319-9.324h108.259c5.143,0,9.329,4.183,9.329,9.324v108.252c0,5.143-4.186,9.328-9.329,9.328H26.743
		c-5.138,0-9.319-4.186-9.319-9.328V341.873z"/>
	<path class="st0" d="M135.002,510.846H26.743C11.997,510.846,0,522.847,0,537.597v108.248c0,14.753,11.997,26.754,26.743,26.754
		h108.259c14.75,0,26.75-12.001,26.75-26.754V537.597C161.753,522.847,149.751,510.846,135.002,510.846z M17.424,537.597
		c0-5.142,4.181-9.326,9.319-9.326h108.259c5.143,0,9.329,4.185,9.329,9.326v108.248c0,5.145-4.186,9.33-9.329,9.33H26.743
		c-5.138,0-9.319-4.186-9.319-9.33V537.597z"/>
	<path class="st0" d="M59.359,439.734c1.654,1.917,4.057,3.017,6.592,3.017c0.16,0,0.323-0.004,0.483-0.015
		c2.676-0.146,5.179-1.556,6.698-3.768l52.216-76.074c1.319-1.919,1.81-4.236,1.384-6.524c-0.426-2.289-1.718-4.273-3.636-5.591
		c-1.458-1.001-3.161-1.531-4.923-1.531c-2.876,0-5.563,1.414-7.189,3.783l-45.826,66.763l-14.976-17.333
		c-1.657-1.917-4.063-3.017-6.598-3.017c-2.088,0-4.11,0.754-5.692,2.12c-3.636,3.14-4.038,8.652-0.898,12.288L59.359,439.734z"/>
</g>
</svg>
