<?xml version="1.0" encoding="utf-8"?>
<!-- Generator: Adobe Illustrator 16.0.0, SVG Export Plug-In . SVG Version: 6.00 Build 0)  -->
<!DOCTYPE svg PUBLIC "-//W3C//DTD SVG 1.1//EN" "http://www.w3.org/Graphics/SVG/1.1/DTD/svg11.dtd">
<svg version="1.1" id="Capa_1" xmlns="http://www.w3.org/2000/svg" xmlns:xlink="http://www.w3.org/1999/xlink" x="0px" y="0px"
	 width="55.682px" height="41.979px" viewBox="0 0 65.682 51.979" style="enable-background:new 0 0 65.682 51.979;"
	 xml:space="preserve">
<style type="text/css">
<![CDATA[
	.st0{fill:#FFFFFF;}
]]>
</style>
<g>
	<g>
		<path class="st0" d="M56.014,52.041c0-2.158-2.488-5.077-5.851-5.932c1.402-0.942,2.371-2.806,2.371-4.485
			c0-2.369-1.921-4.29-4.285-4.29c-2.372,0-4.29,1.921-4.29,4.29c0,1.68,0.97,3.543,2.371,4.485
			c-3.361,0.854-5.851,3.77-5.851,5.932C40.478,54.596,56.014,54.596,56.014,52.041z"/>
		<path class="st0" d="M19.823,9.708c1.916,0,3.476-2.227,3.476-4.147c0-1.924-1.56-3.478-3.476-3.478
			c-1.917,0-3.479,1.554-3.479,3.478C16.344,7.479,17.904,9.708,19.823,9.708z"/>
		<path class="st0" d="M56.277,19.931V5.213c0-1.353-1.102-2.453-2.454-2.453h-9.505V0.92c0-0.509-0.412-0.92-0.921-0.92
			s-0.922,0.413-0.922,0.92v1.84h-9.503c-1.352,0-2.453,1.1-2.453,2.453v7.536l-4.758-1.588c-0.299-0.105-2.971-1.038-5.43-1.16
			l-0.33,0.657h-0.006l0.927,7.211l-1.1,1.924l-1.102-1.924l0.928-7.211h-0.011l-0.327-0.657c-2.551,0.128-5.333,1.127-5.456,1.17
			c-0.051,0.02-0.084,0.059-0.13,0.081c-0.084,0.042-0.158,0.083-0.23,0.141c-0.074,0.053-0.132,0.111-0.19,0.176
			c-0.058,0.068-0.106,0.133-0.15,0.209c-0.049,0.082-0.085,0.161-0.114,0.255c-0.016,0.046-0.048,0.083-0.061,0.133l-2.198,9.897
			c-0.161,0.741,0.301,1.477,1.044,1.644c0.101,0.019,0.197,0.028,0.3,0.028c0.631,0,1.198-0.433,1.338-1.073l2.03-9.132
			c0.144-0.049,0.303-0.097,0.48-0.147v9.389l-1.096,13.607c-0.042,0.528,0.186,0.998,0.547,1.326
			c-1.494,0.673-2.539,2.164-2.539,3.91c0,1.68,0.968,3.543,2.37,4.484c-3.363,0.852-5.85,3.77-5.85,5.932
			c0,2.555,15.535,2.555,15.535,0c0-2.158-2.489-5.08-5.85-5.932c1.404-0.941,2.372-2.805,2.372-4.484
			c0-2.127-1.548-3.882-3.578-4.221c0.149-0.225,0.26-0.471,0.285-0.755l0.988-12.295c0.206,0.088,0.431,0.141,0.67,0.141
			c0.235,0,0.463-0.053,0.667-0.141l0.989,12.295c0.072,0.869,0.793,1.518,1.646,1.518c0.039,0,0.088-0.002,0.132-0.005
			c0.907-0.072,1.583-0.871,1.514-1.775l-1.095-13.605v-9.385c0.697,0.198,1.169,0.363,1.185,0.37
			c0.009,0.003,0.014,0.003,0.019,0.004c0.008,0.001,0.011,0.003,0.016,0.004l5.635,1.882v4.285c0,1.353,1.103,2.453,2.454,2.453
			h4.465l-3.917,14.62c-0.034,0.14-0.033,0.275-0.008,0.405c-0.26-0.045-0.527-0.08-0.805-0.08c-2.367,0-4.288,1.92-4.288,4.289
			c0,1.68,0.97,3.543,2.374,4.484c-3.362,0.855-5.852,3.771-5.852,5.933c0,2.555,15.535,2.555,15.535,0
			c0-2.159-2.489-5.077-5.849-5.933c1.402-0.941,2.371-2.805,2.371-4.484c0-1.543-0.818-2.883-2.042-3.641
			c0.161-0.117,0.291-0.29,0.346-0.497l4.042-15.098h3.133v10.7c0,0.506,0.418,0.919,0.922,0.919c0.508,0,0.925-0.413,0.925-0.919
			v-10.7h3.129l4.044,15.098c0.109,0.414,0.483,0.681,0.889,0.681c0.079,0,0.159-0.012,0.236-0.033
			c0.486-0.136,0.783-0.637,0.653-1.127l-3.917-14.62h4.464C55.175,22.383,56.277,21.284,56.277,19.931z M32.973,21.157
			c-0.677,0-1.228-0.547-1.228-1.226v-3.92c0.059,0.008,0.117,0.033,0.177,0.033c0.575,0,1.113-0.365,1.305-0.939
			c0.238-0.722-0.15-1.5-0.871-1.74l-0.612-0.204V5.213c0-0.677,0.55-1.226,1.229-1.226h20.849c0.678,0,1.229,0.547,1.229,1.226
			v14.718c0,0.677-0.548,1.226-1.229,1.226H32.973z"/>
	</g>
</g>
</svg>
