
<svg version="1.1" id="assembly" xmlns="http://www.w3.org/2000/svg" xmlns:xlink="http://www.w3.org/1999/xlink" x="0px" y="0px"
	 width="170px" height="170px" viewBox="0 0 24 24" enable-background="new 0 0 24 24" xml:space="preserve">

	 <defs>
	 	<style>


	 	</style>
	 </defs>

<g>
	<path id="one" fill="#333" d="M8.4,12.8c0.8-0.4,1-0.6,1.2-1.5c0.2-0.8,0.1-1.1-0.6-1.8C8.6,8.9,8.2,8.4,7.7,7.9c-0.3-0.4-0.6-0.7-1-0.7
		c-0.4,0-0.7,0.4-1,0.9c-0.8,1.4-1.2,2.9-1,4.5C4.8,13.3,4.8,14,5.5,14c0.2,0,0.5-0.1,1-0.3L8.4,12.8z M5.6,13.2
		c0-0.1-0.1-0.5-0.1-0.6c-0.2-1.4,0.2-2.8,0.9-4C6.4,8.4,6.6,8.1,6.7,8C6.8,8.1,7,8.3,7.1,8.4c0.5,0.5,1,1.1,1.5,1.7
		c0.5,0.5,0.5,0.5,0.3,1c-0.2,0.7-0.2,0.7-0.8,1l-1.9,0.9C6,13,5.7,13.1,5.6,13.2z"/>
	<path id="two" fill="#333" d="M9.8,8.9c0.5,0.5,0.8,0.7,1.4,0.7c0.1,0,0.3,0,0.4,0c0.8-0.1,1.1-0.2,1.6-1.1c0.4-0.6,0.7-1.3,1.1-1.9
		c0.2-0.4,0.5-0.8,0.3-1.2c-0.1-0.3-0.5-0.5-1-0.6c-1.6-0.4-3.3-0.3-4.8,0.4c-0.6,0.3-1,0.5-1.1,0.9C7.7,6.5,8,6.8,8.3,7.2
		C8.8,7.8,9.3,8.3,9.8,8.9z M9.2,6c1.3-0.6,2.9-0.7,4.3-0.4c0.2,0.1,0.3,0.1,0.4,0.1c-0.1,0.1-0.2,0.4-0.2,0.4
		c-0.4,0.6-0.7,1.3-1.1,1.9c-0.4,0.7-0.4,0.7-1,0.7c-0.1,0-0.3,0-0.4,0c-0.3,0-0.4,0-0.8-0.5c-0.5-0.6-1-1.1-1.5-1.7
		C8.8,6.6,8.7,6.4,8.6,6.3C8.7,6.2,9,6.1,9.2,6z"/>
	<path id="three" fill="#333" d="M21.8,12.9c1.2-0.2,1.7-0.4,1.6-1.6c0-1.2-0.5-1.4-1.8-1.4c-0.8,0-0.8,0-1.2-1C20,7.9,20,7.9,20.7,7.3
		c1-0.9,1.2-1.3,0.5-2.2c-0.2-0.3-0.5-0.7-1-0.7c-0.3,0-0.7,0.2-1.2,0.5c-0.3,0.2-0.6,0.3-0.7,0.3c-0.2,0-0.4-0.1-0.7-0.4
		C16.5,4,16.6,4,16.7,3.4c0.4-1.3,0.4-1.8-0.8-2.2c-0.3-0.1-0.5-0.2-0.8-0.2c-0.6,0-0.9,0.6-1.3,1.3c-0.3,0.5-0.3,0.6-0.8,0.6
		c-0.2,0-0.3,0-0.6,0c-1-0.1-1-0.1-1.3-0.9C11,1.3,10.8,0.6,10,0.6c-0.1,0-0.3,0-0.6,0.1c-1.2,0.3-1.3,0.7-1.2,2
		c0.1,0.8,0.1,0.8-0.6,1.2C7.4,4,7.1,4.1,7,4.1C6.9,4.1,6.7,4,6.4,3.6C5.9,3.2,5.5,2.9,5.1,2.9c-0.4,0-0.7,0.2-1,0.5
		c-0.9,0.8-0.7,1.2,0,2.3c0.5,0.6,0.5,0.6-0.1,1.6C3.6,8,3.5,8,3.3,8C3.1,8,2.9,8,2.7,8C2.4,7.9,2.1,7.9,1.9,7.9
		C1,7.9,0.9,8.4,0.7,9c-0.3,1.2,0,1.4,1.3,1.9c0.7,0.3,0.7,0.3,0.8,1.4c0,1,0,1-0.6,1.3c-1.3,0.6-1.6,0.8-1.2,2c0.2,0.5,0.3,1,1.1,1
		c0.3,0,0.6-0.1,1.1-0.2c0.2,0,0.4-0.1,0.5-0.1c0.2,0,0.3,0.1,0.8,0.7C5,17.9,5,17.9,4.6,18.6c-0.7,1.1-0.9,1.5,0.1,2.3
		c0.3,0.3,0.6,0.5,1,0.5c0.4,0,0.8-0.3,1.3-0.9C7.3,20.1,7.5,20,7.7,20c0.2,0,0.4,0.1,0.8,0.3c0.9,0.4,0.9,0.4,0.9,1.3
		c0,1.3,0.1,1.7,1.4,1.9c0.1,0,0.3,0,0.4,0c0.9,0,1.1-0.7,1.2-1.6c0.2-0.8,0.2-0.9,1.2-1.1c0.3-0.1,0.5-0.1,0.7-0.1
		c0.2,0,0.3,0,0.7,0.6c0.5,0.7,0.8,1.2,1.3,1.2c0.3,0,0.5-0.1,0.8-0.3c1.1-0.5,1-1.1,0.5-2.3c-0.3-0.7-0.3-0.8,0.4-1.4
		c0.4-0.4,0.6-0.6,0.8-0.6c0.2,0,0.4,0.1,0.7,0.3c0.6,0.3,0.9,0.4,1.2,0.4c0.6,0,0.8-0.4,1.1-0.8c0.6-1,0.3-1.4-0.8-2.2
		c-0.6-0.4-0.7-0.5-0.4-1.4C20.9,13,20.9,13,21.8,12.9z M20.6,16.1c0.9,0.7,0.9,0.7,0.6,1.2c-0.2,0.4-0.3,0.5-0.4,0.5
		c-0.2,0-0.5-0.2-0.9-0.3c-1.2-0.5-1.6-0.3-2.4,0.4c-0.9,0.9-1,1.3-0.6,2.3c0.4,1.1,0.4,1.1-0.1,1.3c-0.2,0.1-0.4,0.2-0.5,0.2
		c-0.1,0-0.4-0.4-0.7-0.8c-0.4-0.6-0.7-1-1.4-1c-0.2,0-0.4,0-0.8,0.1c-1.3,0.2-1.6,0.5-1.8,1.7c-0.2,1-0.3,1-0.5,1
		c-0.1,0-0.2,0-0.3,0c-0.7-0.1-0.7-0.1-0.7-1.1c0-1.3-0.2-1.6-1.4-2.1c-0.5-0.2-0.8-0.3-1.1-0.3c-0.5,0-0.8,0.3-1.3,0.8
		c-0.2,0.2-0.6,0.6-0.8,0.6c-0.1,0-0.4-0.2-0.4-0.3c-0.5-0.4-0.5-0.4,0.1-1.2c0.7-1,0.6-1.4-0.1-2.4c-0.5-0.7-0.8-1.1-1.5-1.1
		c-0.2,0-0.4,0-0.7,0.1c-0.3,0.1-0.7,0.1-0.9,0.1c-0.2,0-0.2,0-0.4-0.5c-0.2-0.6-0.2-0.6,0.8-1c1-0.5,1.2-0.8,1.1-2.1
		c-0.1-1.3-0.2-1.6-1.3-2.1c-1-0.4-1-0.4-0.8-1c0.1-0.5,0.2-0.5,0.4-0.5c0.2,0,0.4,0,0.7,0.1c0.3,0,0.5,0.1,0.7,0.1
		c0.7,0,1-0.4,1.5-1.2c0.7-1.2,0.7-1.5,0-2.5C4.2,4.4,4.2,4.4,4.6,4C4.7,3.9,5,3.7,5.1,3.7c0.1,0,0.6,0.4,0.8,0.6
		C6.3,4.6,6.6,4.9,7,4.9c0.3,0,0.6-0.1,1-0.3c1-0.5,1.2-0.8,1.1-2C9,1.6,9,1.6,9.6,1.4c0.2,0,0.3-0.1,0.4-0.1c0.1,0,0.2,0,0.5,0.8
		c0.4,1.1,0.6,1.3,2,1.4c0.2,0,0.4,0,0.6,0c0.9,0,1.2-0.3,1.5-1c0.2-0.3,0.5-0.9,0.6-0.9c0.1,0,0.4,0.1,0.5,0.1
		c0.6,0.2,0.6,0.2,0.3,1.3c-0.3,1-0.1,1.3,1,2.2c0.8,0.6,1.3,0.8,2.4,0.2c0.2-0.1,0.7-0.4,0.8-0.4c0.1,0,0.2,0.2,0.3,0.4
		c0.4,0.5,0.4,0.5-0.3,1.2c-1,0.8-1,1.2-0.6,2.4c0.4,1.2,0.7,1.5,1.9,1.6c1.1,0.1,1.1,0.1,1.1,0.7c0,0.6,0,0.6-0.9,0.7
		c-1.3,0.2-1.5,0.5-1.8,1.7C19.6,15,19.7,15.4,20.6,16.1z"/>
	<path id="four" fill="#333" d="M11.7,15.4c-0.1-1-0.2-1.2-1.1-1.7c-0.7-0.4-1-0.5-1.9-0.1l-1.9,0.8c-0.5,0.2-1,0.4-1.1,0.9c-0.1,0.4,0.2,0.8,0.7,1.3
		c1,1.2,2.5,2,4,2.3C10.7,19,11,19,11.2,19c0.1,0,0.4,0,0.6-0.2c0.3-0.3,0.2-0.7,0.2-1.3C11.9,16.8,11.8,16.1,11.7,15.4z M11.2,18.2
		c-0.1,0-0.3,0-0.6-0.1c-1.3-0.3-2.6-1-3.5-2c-0.1-0.2-0.5-0.5-0.5-0.6c0.1-0.1,0.5-0.3,0.7-0.4l1.9-0.8c0.3-0.1,0.5-0.2,0.6-0.2
		c0.1,0,0.2,0.1,0.5,0.3c0.6,0.4,0.6,0.4,0.7,1.1c0.1,0.7,0.1,1.4,0.2,2C11.2,17.9,11.2,18.2,11.2,18.2z"/>
	<path id="five" fill="#333" d="M17.2,7c-0.5-0.5-0.8-0.9-1.2-0.9c-0.5,0-0.7,0.4-1,0.9C14.7,7.7,14.3,8.4,14,9c-0.5,0.8-0.5,1-0.1,1.8
		c0.5,0.9,0.6,1.1,1.5,1.3l2.1,0.4c0.4,0.1,0.6,0.1,0.8,0.1c0.1,0,0.4,0,0.6-0.2c0.2-0.3,0.2-0.7,0.2-1.2C18.9,9.6,18.3,8.2,17.2,7z
		 M18.3,11.9c-0.1,0-0.4,0-0.6-0.1l-2.1-0.4c-0.6-0.1-0.6-0.1-1-0.8c-0.3-0.5-0.3-0.5,0.1-1.1c0.4-0.6,0.7-1.3,1.1-1.9
		C15.8,7.4,16,7.1,16.1,7c0.1,0.1,0.4,0.4,0.6,0.6c0.9,1,1.5,2.3,1.6,3.7C18.3,11.6,18.3,11.9,18.3,11.9z"/>
	<path id="six" fill="#333" d="M17.1,13.4c-0.6-0.1-1.3-0.3-1.9-0.4c-1-0.2-1.2,0-1.9,0.5c-0.7,0.7-0.8,0.9-0.7,1.8l0.2,2.1c0.1,0.6,0.1,1.4,0.9,1.4
		c0.3,0,0.6-0.1,1.1-0.3c1.4-0.6,2.6-1.8,3.4-3.1c0.3-0.5,0.4-0.8,0.3-1.2C18.3,13.7,17.8,13.6,17.1,13.4z M17.5,14.9
		c-0.7,1.2-1.7,2.2-3,2.8c-0.2,0.1-0.6,0.3-0.7,0.3c0,0-0.1-0.2-0.1-0.7l-0.2-2.1c-0.1-0.7-0.1-0.7,0.5-1.1c0.4-0.4,0.5-0.4,0.6-0.4
		c0.1,0,0.3,0,0.5,0.1c0.6,0.1,1.3,0.3,1.9,0.4c0.2,0,0.7,0.2,0.8,0.2C17.7,14.4,17.6,14.6,17.5,14.9z"/>
	<path id="seven" fill="#333" d="M12.9,10.9c-0.5-0.6-1.5-0.6-2-0.1c-0.6,0.5-0.6,1.4-0.1,2c0.3,0.3,0.7,0.5,1.1,0.5c0.4,0,0.7-0.1,1-0.4
		C13.4,12.4,13.5,11.5,12.9,10.9z M12.3,12.3c-0.2,0.2-0.7,0.2-0.9-0.1c-0.2-0.3-0.2-0.7,0-0.9c0.1-0.1,0.3-0.2,0.4-0.2
		c0.2,0,0.4,0.1,0.5,0.2C12.6,11.7,12.5,12.1,12.3,12.3z"/>
</g>
</svg>
